<?xml version="1.0" standalone="no"?><!DOCTYPE svg PUBLIC "-//W3C//DTD SVG 1.1//EN" "http://www.w3.org/Graphics/SVG/1.1/DTD/svg11.dtd"><svg t="1586005879579" class="icon" viewBox="0 0 1024 1024" version="1.1" xmlns="http://www.w3.org/2000/svg" p-id="4478" xmlns:xlink="http://www.w3.org/1999/xlink" width="128" height="128"><defs><style type="text/css"></style></defs><path d="M928 160H96a32 32 0 0 0-32 32v672a32 32 0 0 0 32 32h832a32 32 0 0 0 32-32V192a32 32 0 0 0-32-32z m-32 672H128V224h768v608z" p-id="4479"></path><path d="M230.592 448.096H544a32 32 0 1 0 0-64H230.592a32 32 0 0 0 0 64zM230.592 640.096H544a32 32 0 1 0 0-64H230.592a32 32 0 1 0 0 64zM768 704a32 32 0 0 0 32-32V350.016a32 32 0 1 0-64 0V672a32 32 0 0 0 32 32z" p-id="4480"></path></svg>