<?xml version="1.0" standalone="no"?><!DOCTYPE svg PUBLIC "-//W3C//DTD SVG 1.1//EN" "http://www.w3.org/Graphics/SVG/1.1/DTD/svg11.dtd"><svg t="1586006061531" class="icon" viewBox="0 0 1024 1024" version="1.1" xmlns="http://www.w3.org/2000/svg" p-id="7793" xmlns:xlink="http://www.w3.org/1999/xlink" width="128" height="128"><defs><style type="text/css"></style></defs><path d="M320.91 520.04c118.89 0 215.62-96.51 215.62-215.13V40.13H320.91c-118.62 0-215.11 96.74-215.11 215.64v49.14c0 118.63 96.49 215.13 215.11 215.13zM180.33 255.77c0-77.8 63.06-141.1 140.58-141.1H462v190.24c0 77.52-63.3 140.59-141.09 140.59-77.52 0-140.58-63.07-140.58-140.59v-49.14zM891.55 667.05H643.1c-5.78 0-11.52 0.39-17.16 1.15-19.29-46.02-64.79-78.44-117.74-78.44H133.02C62.68 589.76 5.45 647 5.45 717.35v286.08h547.2v0.02H1019V794.74c0-70.41-57.16-127.69-127.45-127.69z m-811.57 50.3c0-29.25 23.8-53.05 53.04-53.05H508.2c29.26 0 53.06 23.8 53.06 53.05V928.9H79.98V717.35z m864.48 211.57H635.79V742.07c2.37-0.31 4.8-0.48 7.3-0.48h248.45c29.19 0 52.92 23.85 52.92 53.16v134.17z" fill="#ffffff" p-id="7794"></path><path d="M767.44 630.28c96.47 0 174.93-78.31 174.93-174.57v-212.9H767.44c-96.25 0-174.57 78.49-174.57 174.96v37.93c0 96.27 78.32 174.58 174.57 174.58zM667.41 417.77c0-55.37 44.89-100.42 100.04-100.42h100.4v138.36c0 55.16-45.03 100.04-100.4 100.04-55.15 0-100.04-44.87-100.04-100.04v-37.94z" fill="#ffffff" p-id="7795"></path></svg>