<?xml version="1.0" standalone="no"?><!DOCTYPE svg PUBLIC "-//W3C//DTD SVG 1.1//EN" "http://www.w3.org/Graphics/SVG/1.1/DTD/svg11.dtd"><svg t="1586005949618" class="icon" viewBox="0 0 1024 1024" version="1.1" xmlns="http://www.w3.org/2000/svg" p-id="5062" xmlns:xlink="http://www.w3.org/1999/xlink" width="128" height="128"><defs><style type="text/css"></style></defs><path d="M512.05536 572a40.56 40.56 0 0 1-15.696-3.696L21.73536 351.024a36.336 36.336 0 0 1 0-66.496L496.35936 67.312a38.72 38.72 0 0 1 31.392 0l474.624 217.216a36.336 36.336 0 0 1 0 66.496L527.75136 568.24a30.64 30.64 0 0 1-15.696 3.76zM126.37536 317.776L512.05536 494.368l385.68-176.576L512.05536 141.2z" p-id="5063"></path><path d="M843.04736 762.016a36.576 36.576 0 0 1-36.944-36.944v-105.6a36.944 36.944 0 1 1 73.888 0v105.6a37.056 37.056 0 0 1-36.944 36.944z" p-id="5064"></path><path d="M181.79936 762a36.576 36.576 0 0 1-36.944-36.928V419.936a36.944 36.944 0 1 1 73.888 0v305.872a36.896 36.896 0 0 1-36.944 36.192z" p-id="5065"></path><path d="M512.03936 960.016a466.592 466.592 0 0 1-254.544-78.32c-69.84-47.28-112.624-105.6-112.624-152.928a37.552 37.552 0 0 1 75.088 0c0 37.68 121.6 157.376 292.8 157.376s292.8-119.696 292.8-157.376a37.552 37.552 0 0 1 75.088 0c0 47.28-43.552 105.6-112.624 152.928a470.96 470.96 0 0 1-255.984 78.32z" p-id="5066"></path></svg>