<?xml version="1.0" standalone="no"?><!DOCTYPE svg PUBLIC "-//W3C//DTD SVG 1.1//EN" "http://www.w3.org/Graphics/SVG/1.1/DTD/svg11.dtd"><svg t="1586006026992" class="icon" viewBox="0 0 1024 1024" version="1.1" xmlns="http://www.w3.org/2000/svg" p-id="7062" xmlns:xlink="http://www.w3.org/1999/xlink" width="128" height="128"><defs><style type="text/css"></style></defs><path d="M511.992325 26.931373c-267.881097 0-485.039975 217.158878-485.039975 485.039975s217.158878 485.039975 485.039975 485.039975c267.87905 0 485.036905-217.159902 485.036905-485.039975S779.871375 26.931373 511.992325 26.931373zM511.992325 943.115831c-238.118236 0-431.150624-193.031365-431.150624-431.146531S273.874089 80.821747 511.992325 80.821747c238.113119 0 431.143461 193.031365 431.143461 431.147554S750.105445 943.115831 511.992325 943.115831z" p-id="7063"></path><path d="M404.204413 188.609659 619.777167 188.609659 565.883723 296.395524 458.097858 296.395524Z" p-id="7064"></path><path d="M409.129586 589.041654 614.947162 738.727815 646.723889 700.597379 639.65796 675.863045 428.252109 522.112312Z" p-id="7065"></path><path d="M591.064218 505.786485 538.938024 323.343269 485.043556 323.343269 460.125027 410.55761Z" p-id="7066"></path><path d="M402.754389 611.351775 377.256668 700.597379 511.990279 862.275665 600.965729 755.506966Z" p-id="7067"></path><path d="M453.751876 432.868755 434.627307 499.80219 629.937574 641.8463 600.782557 539.803229Z" p-id="7068"></path></svg>