<?xml version="1.0" standalone="no"?><!DOCTYPE svg PUBLIC "-//W3C//DTD SVG 1.1//EN" "http://www.w3.org/Graphics/SVG/1.1/DTD/svg11.dtd"><svg t="1586845683281" class="icon" viewBox="0 0 1024 1024" version="1.1" xmlns="http://www.w3.org/2000/svg" p-id="15848" xmlns:xlink="http://www.w3.org/1999/xlink" width="128" height="128"><defs><style type="text/css"></style></defs><path d="M864 960h-704A160.192 160.192 0 0 1 0 800v-448C0 263.808 71.808 192 160 192h704C952.256 192 1024 263.808 1024 352v448c0 88.256-71.744 160-160 160zM160 256C107.072 256 64 299.072 64 352v448c0 52.928 43.072 96 96 96h704c52.928 0 96-43.072 96-96v-448c0-52.928-43.072-96-96-96h-704z" p-id="15849"></path><path d="M672 224h-64V127.744L416 128v96h-64V127.744A64 64 0 0 1 416 64h192c35.328 0 64 28.608 64 63.744V224zM512 578.624a32 32 0 0 1-32-32v-59.52a32 32 0 0 1 64 0v59.52a32 32 0 0 1-32 32z" p-id="15850"></path><path d="M512 499.968c-160.384 0-315.968-18.432-462.4-54.72a32 32 0 1 1 15.36-62.08c282.88 70.144 611.2 70.144 894.08 0a32 32 0 1 1 15.36 62.08c-146.432 36.352-302.016 54.72-462.4 54.72z" p-id="15851"></path></svg>