<?xml version="1.0" standalone="no"?><!DOCTYPE svg PUBLIC "-//W3C//DTD SVG 1.1//EN" "http://www.w3.org/Graphics/SVG/1.1/DTD/svg11.dtd"><svg t="1586845584427" class="icon" viewBox="0 0 1024 1024" version="1.1" xmlns="http://www.w3.org/2000/svg" p-id="7693" xmlns:xlink="http://www.w3.org/1999/xlink" width="128" height="128"><defs><style type="text/css"></style></defs><path d="M812.015 924.872h-596.85c-37.528 0-68.059-30.531-68.059-68.059V168.349c0-37.527 30.531-68.059 68.059-68.059h596.85c37.527 0 68.059 30.531 68.059 68.059v688.465c-0.001 37.527-30.532 68.058-68.059 68.058zM215.165 164.29c-2.162 0-4.059 1.896-4.059 4.059v688.465c0 2.162 1.896 4.059 4.059 4.059h596.85c2.162 0 4.059-1.896 4.059-4.059V168.349c0-2.162-1.896-4.059-4.059-4.059h-596.85z" fill="" p-id="7694"></path><path d="M177.512 396.896l0.14-64 667.47 1.468-0.141 64z" fill="" p-id="7695"></path><path d="M487.09 283.902h50v146.99h-50z" fill="" p-id="7696"></path><path d="M514.09 240.404m-68.997 0a68.997 68.997 0 1 0 137.994 0 68.997 68.997 0 1 0-137.994 0Z" fill="" p-id="7697"></path><path d="M513.732 490.759m-68.997 0a68.997 68.997 0 1 0 137.994 0 68.997 68.997 0 1 0-137.994 0Z" fill="" p-id="7698"></path></svg>